<svg xmlns="http://www.w3.org/2000/svg" xmlns:xlink="http://www.w3.org/1999/xlink" width="272" height="272" viewBox="0 0 272 272" fill="none"><defs><rect id="path_0" x="0" y="0" width="272" height="272" /></defs><g opacity="1" transform="translate(0 0)  rotate(0 136 136)"><mask id="bg-mask-0" fill="white"><use xlink:href="#path_0"></use></mask><g mask="url(#bg-mask-0)" ><path id="路径 1" fill-rule="evenodd" style="fill:#B0B0B0" transform="translate(22.666666666666664 22.666666666666664)  rotate(0 113.33333333333331 110.58777406177997)" opacity="1" d="M85,196.18C53.61,202.98 46.92,180.99 46.92,180.99C41.71,167.85 34.34,164.33 34.34,164.33C24.03,157.31 35.13,157.53 35.13,157.53C46.47,158.33 52.47,169.21 52.47,169.21C62.33,186.43 78.99,181.33 85.45,178.61C86.47,171.25 89.42,166.26 92.59,163.43C67.43,160.59 41.03,150.85 41.03,107.67C41.03,95.09 45.33,85 52.7,76.95C51.57,74.12 47.6,62.33 53.83,47.03C53.83,47.03 63.35,43.97 85,58.59C93.95,56.1 103.7,54.85 113.33,54.85C122.97,54.85 132.71,56.1 141.67,58.59C163.31,43.97 172.83,47.03 172.83,47.03C179.07,62.33 175.1,74.12 173.97,76.95C181.33,85 185.64,95.09 185.64,107.67C185.64,150.96 159.12,160.48 133.85,163.31C137.93,166.83 141.67,173.74 141.67,184.28L141.67,215.33C141.67,218.39 143.48,222.02 149.26,221C194.25,205.81 226.67,163.43 226.67,113.33C226.67,50.78 175.88,0 113.33,0C50.78,0 0,50.78 0,113.33C0,163.43 32.53,205.93 77.52,221C83.19,221.91 85,218.39 85,215.33L85,196.18Z " /></g></g></svg>