<svg xmlns="http://www.w3.org/2000/svg" xmlns:xlink="http://www.w3.org/1999/xlink" width="241" height="241" viewBox="0 0 241 241" fill="none"><defs><rect id="path_0" x="0" y="0" width="241" height="241" /></defs><g opacity="1" transform="translate(0 0)  rotate(0 120.5 120.5)"><mask id="bg-mask-0" fill="white"><use xlink:href="#path_0"></use></mask><g mask="url(#bg-mask-0)" ><path id="分组 1" fill-rule="evenodd" style="fill:#006CFF" transform="translate(51.297396078489925 30.297041992187502)  rotate(0 68.25588088017307 54.30269763794118)" opacity="1" d="M68.2736 35.81L69.5136 34.88C70.2036 34.36 74.9836 30.54 80.1836 26.41C85.3536 22.28 89.8936 18.69 90.2336 18.49C90.6136 18.25 90.8936 17.97 90.8936 17.83C90.8936 17.73 88.6236 15.8 85.8336 13.63C83.0036 11.43 80.4936 9.43 80.2236 9.19C76.4636 6.13 68.5136 0 68.2736 0C68.1336 0.03 63.5936 3.51 58.1836 7.78C52.7836 12.05 47.7536 16.04 47.0336 16.66L45.6536 17.77L48.2336 19.8C49.6436 20.93 51.0236 22.03 51.3036 22.28C51.5736 22.52 55.5336 25.65 60.0436 29.26L68.2736 35.81Z M122.39 43.3431C122.22 43.2431 118.02 46.3431 113.1 50.2331C68.14 85.7931 68.48 85.5231 67.65 85.0031C66.93 84.5531 64.93 83.0031 52.57 73.2331C50.44 71.5431 48.2 69.7531 47.55 69.2731C46.89 68.7531 45.48 67.6531 44.41 66.7931C43.31 65.9331 41.9 64.8331 41.28 64.3131C38.18 61.9031 24.55 51.1231 17.25 45.3731C15.87 44.2731 14.56 43.3831 14.39 43.3831C14.22 43.3831 11.81 45.2031 9.06 47.4131C6.3 49.6431 3.72 51.7131 3.34 51.9831C2.93 52.2631 2.14 52.9131 1.58 53.4331C1.03 53.9831 0.45 54.3931 0.31 54.3931C-0.41 54.3931 0.14 55.1231 1.83 56.4631C2.79 57.2231 3.89 58.0831 4.2 58.3531C4.51 58.5931 6.61 60.2531 8.85 62.0031C11.09 63.7631 14.32 66.3131 16.01 67.6531C20.56 71.2331 23.52 73.6131 46.1 91.4431C57.36 100.323 67 107.863 67.48 108.173C68.34 108.763 68.41 108.763 69.24 108.103C70.51 107.123 71.77 106.123 73.02 105.113C74.64 103.833 76.5 102.353 77.16 101.843C84.25 96.2631 95.99 87.0031 96.4 86.6531C96.68 86.4131 99.33 84.3531 102.25 82.0431C105.18 79.7331 111.17 75.0531 115.51 71.6131C119.88 68.1731 126.39 63.0431 130.04 60.1831C133.69 57.3231 136.58 54.8831 136.51 54.7031C136.3 54.4331 122.95 43.6231 122.39 43.3431Z " /><path id="路径 3" fill-rule="evenodd" style="fill:#006CFF" transform="translate(6.452054125912293 109.86077459851339)  rotate(0 113.3319519409501 50.388146848158186)" opacity="1" d="M144.14,76.57C144.86,75.98 145.65,75.37 145.86,75.19C146.07,74.99 148.65,72.95 151.57,70.65C156.46,66.86 165.48,59.77 166.72,58.74C167,58.49 167.93,57.77 168.79,57.12C169.65,56.46 170.65,55.64 171.03,55.33C171.41,55.02 174.5,52.57 177.91,49.89C184.76,44.52 187.86,42.07 198.74,33.5C202.8,30.3 206.39,27.51 206.66,27.27C207.25,26.79 214.06,21.42 217.16,18.97C218.3,18.11 219.3,17.28 219.4,17.18C219.5,17.04 220.81,16.04 222.33,14.87C223.84,13.74 225.42,12.46 225.87,12.09L226.66,11.4L224.32,9.57C223.05,8.54 221.91,7.64 221.81,7.54C221.53,7.23 216.54,3.2 214.72,1.83C213.79,1.1 213,0.41 212.93,0.24C212.62,-0.48 211.34,0.28 206.04,4.48C202.87,6.96 199.98,9.23 199.6,9.54C199.22,9.88 197.12,11.5 194.95,13.22C192.79,14.91 190.93,16.39 190.82,16.49C190.72,16.6 189.27,17.77 187.55,19.07C185.87,20.38 183.97,21.83 183.39,22.31C182.22,23.27 182.11,23.34 178.6,26.13C177.29,27.16 175.95,28.2 175.67,28.44C175.4,28.68 170.89,32.23 165.69,36.29C160.49,40.39 155.91,44 155.53,44.31C155.16,44.65 152.13,47.03 148.82,49.61C145.52,52.19 139.22,57.15 134.81,60.63C130.44,64.11 124.86,68.48 122.45,70.37C120.04,72.27 116.97,74.68 115.63,75.74L113.19,77.71L112.15,76.98C111.6,76.57 111.05,76.16 110.95,76.05C110.85,75.95 109.78,75.09 108.54,74.16C105.75,71.99 105.13,71.51 104.61,71.06C104.41,70.85 103.62,70.24 102.86,69.68C102.1,69.1 101.41,68.58 101.31,68.48C101.21,68.38 99.69,67.14 97.9,65.72C96.11,64.35 94.39,63.01 94.11,62.76C93.8,62.49 90.09,59.56 85.82,56.22C81.58,52.88 77.55,49.72 76.86,49.2C75.52,48.1 68.98,42.93 47.43,25.96C39.3,19.56 30.32,12.46 27.46,10.23C15.75,0.93 14.48,-0.03 14.07,0C13.86,0 10.76,2.41 7.18,5.3L7.18,5.3C3.6,8.19 0.47,10.81 0.19,11.09C-0.36,11.6 -1.08,10.98 19.02,26.82C26.84,32.98 26.7,32.88 32.59,37.53C35.03,39.46 41.13,44.28 46.19,48.24C55.17,55.33 56.76,56.57 58.58,58.01C59.07,58.43 63.99,62.28 69.5,66.62C74.97,70.96 86.95,80.39 96.08,87.59C105.23,94.78 112.81,100.7 112.98,100.77C113.15,100.84 114.74,99.74 116.49,98.33C121.62,94.33 137.73,81.63 140.39,79.53C141.73,78.46 143.42,77.12 144.14,76.57Z " /></g></g></svg>