<svg xmlns="http://www.w3.org/2000/svg" xmlns:xlink="http://www.w3.org/1999/xlink" width="266" height="266" viewBox="0 0 266 266" fill="none"><defs><rect id="path_0" x="0" y="0" width="266" height="266" /><linearGradient id="linear_0" x1="0%" y1="50%" x2="100%" y2="50%" gradientUnits="objectBoundingBox"><stop offset="0" stop-color="#3CD696" stop-opacity="1" /><stop offset="1" stop-color="#00FFE6" stop-opacity="1" /></linearGradient></defs><g opacity="1" transform="translate(0 0)  rotate(0 133 133)"><mask id="bg-mask-0" fill="white"><use xlink:href="#path_0"></use></mask><g mask="url(#bg-mask-0)" ><path id="并集" fill-rule="evenodd" fill="url(#linear_0)" transform="translate(11.079956666666622 10.736009692003273)  rotate(0 121.92168092115054 122.09114640225167)" opacity="1" d="M169.09 220.29C168.97 220.15 168.85 220.02 168.72 219.88C168.6 219.75 168.47 219.63 168.34 219.5C168.2 219.38 168.07 219.26 167.93 219.14C167.79 219.02 167.65 218.9 167.51 218.79C167.37 218.68 167.22 218.57 167.07 218.47L166.62 218.17C166.47 218.07 166.31 217.98 166.15 217.89C165.99 217.8 165.83 217.72 165.67 217.64C165.51 217.55 165.34 217.48 165.18 217.41C165.01 217.33 164.84 217.26 164.67 217.2C164.51 217.13 164.33 217.07 164.16 217.02C163.99 216.96 163.82 216.91 163.64 216.86C163.47 216.81 163.29 216.77 163.11 216.73C162.94 216.69 162.76 216.66 162.58 216.63C162.4 216.59 162.22 216.57 162.04 216.55C161.86 216.53 161.68 216.51 161.5 216.5C161.32 216.48 161.14 216.47 160.95 216.47L160.41 216.47L159.87 216.5C159.28 216.54 158.39 216.59 157.19 216.62C154.67 216.7 151.98 216.71 149.11 216.64C145.07 216.55 141 216.31 136.9 215.93C131.77 215.45 126.75 214.77 121.83 213.88C116.04 212.82 110.5 211.5 105.19 209.9C99.18 208.09 93.54 205.96 88.26 203.49C76.1 197.79 66.09 190.45 58.22 181.46C54.26 176.93 50.55 171.01 47.1 163.69C43.81 156.71 40.81 148.56 38.09 139.25C35.62 130.76 33.4 121.38 31.45 111.1C29.72 102.04 28.22 92.37 26.94 82.1C25.85 73.38 24.93 64.33 24.18 54.98C23.59 47.48 23.12 39.95 22.77 32.4C22.61 28.9 22.48 25.52 22.38 22.25C25.66 22.2 29.06 22.17 32.56 22.17C40.13 22.17 47.66 22.29 55.17 22.51C64.54 22.8 73.6 23.25 82.34 23.87C92.63 24.61 102.31 25.57 111.39 26.75C121.69 28.09 131.09 29.71 139.6 31.6C148.94 33.68 157.1 36.06 164.09 38.75C171.39 41.55 177.28 44.64 181.76 48Q188.27 52.875 193.43 60.42C196.69 65.19 199.54 70.74 201.97 77.06C204.21 82.89 206.08 89.33 207.58 96.38C208.91 102.65 209.93 109.33 210.64 116.44C211.24 122.5 211.62 128.77 211.75 135.27C211.86 140.48 211.82 145.7 211.63 150.94C211.49 154.67 211.28 158.22 211.01 161.58C210.87 163.21 210.76 164.45 210.66 165.3C210.61 165.66 210.59 166.02 210.58 166.38C210.58 166.75 210.59 167.11 210.61 167.47C210.64 167.83 210.69 168.19 210.75 168.55C210.82 168.91 210.9 169.26 211 169.61C211.1 169.96 211.21 170.3 211.35 170.64C211.48 170.98 211.63 171.31 211.79 171.63C211.96 171.96 212.14 172.27 212.33 172.58C212.53 172.88 212.74 173.18 212.96 173.46C213.19 173.75 213.43 174.02 213.68 174.28C213.93 174.54 214.2 174.79 214.47 175.03C214.75 175.26 215.04 175.49 215.33 175.69C215.63 175.9 215.94 176.09 216.26 176.27C216.57 176.45 216.9 176.61 217.23 176.75C217.56 176.9 217.9 177.03 218.25 177.14C218.59 177.25 218.94 177.35 219.3 177.43C219.65 177.5 220.01 177.56 220.37 177.61C220.55 177.63 220.73 177.64 220.91 177.66C221.09 177.67 221.27 177.68 221.46 177.68L222 177.68L222.54 177.65L223.08 177.59C223.26 177.57 223.44 177.54 223.62 177.51C223.8 177.48 223.98 177.44 224.16 177.4C224.33 177.36 224.51 177.31 224.68 177.26C224.86 177.21 225.03 177.16 225.2 177.1C225.37 177.04 225.55 176.98 225.71 176.92C225.88 176.85 226.05 176.78 226.22 176.7C226.38 176.63 226.54 176.55 226.71 176.47C226.87 176.39 227.03 176.3 227.18 176.21C227.34 176.12 227.5 176.03 227.65 175.93C227.8 175.83 227.95 175.73 228.1 175.62C228.25 175.52 228.39 175.41 228.54 175.3C228.68 175.18 228.82 175.07 228.95 174.95C229.09 174.83 229.23 174.71 229.36 174.58C229.49 174.46 229.61 174.33 229.74 174.19C229.86 174.06 229.98 173.93 230.1 173.79C230.22 173.65 230.33 173.51 230.44 173.37C230.56 173.22 230.66 173.08 230.77 172.93C230.87 172.78 230.97 172.63 231.07 172.47C231.16 172.32 231.25 172.16 231.34 172.01C231.43 171.85 231.52 171.69 231.6 171.52C231.68 171.36 231.75 171.2 231.83 171.03C231.9 170.86 231.97 170.7 232.03 170.53C232.1 170.36 232.16 170.19 232.21 170.01C232.27 169.84 232.32 169.67 232.37 169.49C232.42 169.32 232.46 169.14 232.5 168.96C232.54 168.79 232.57 168.61 232.6 168.43C232.63 168.25 232.66 168.07 232.68 167.89C232.81 166.78 232.95 165.28 233.11 163.39C233.41 159.7 233.64 155.83 233.79 151.77C234 146.09 234.04 140.44 233.92 134.8C233.77 127.72 233.36 120.87 232.7 114.23C231.91 106.32 230.77 98.84 229.27 91.77C227.53 83.58 225.33 76.02 222.67 69.1C219.61 61.16 215.97 54.09 211.73 47.9C206.91 40.86 201.36 34.98 195.07 30.27C188.94 25.67 181.26 21.59 172.05 18.05C164.03 14.97 154.82 12.27 144.41 9.96C127.25 6.14 107.09 3.41 83.92 1.76Q70.36 0.785001 55.84 0.350001C48.11 0.120001 40.35 0 32.56 0C26.99 0 21.68 0.0600014 16.63 0.180001C14.08 0.240001 12.08 0.300001 10.62 0.360001C10.45 0.360001 10.27 0.380001 10.1 0.390001C9.92001 0.410001 9.74001 0.430001 9.57001 0.450001C9.39001 0.480001 9.22001 0.500001 9.05001 0.540001C8.87001 0.570001 8.70001 0.610001 8.53001 0.650001C8.36001 0.690001 8.19001 0.730001 8.02001 0.780001C7.85001 0.830001 7.68001 0.880001 7.51001 0.940001C7.34001 1 7.18001 1.06 7.01001 1.12L6.53001 1.33C6.36001 1.4 6.21001 1.48 6.05001 1.56C5.89001 1.64 5.74001 1.72 5.58001 1.81L5.13001 2.08C4.98001 2.18 4.83001 2.28 4.69001 2.38C4.54001 2.48 4.40001 2.59 4.26001 2.7C4.12001 2.8 3.99001 2.92 3.85001 3.03L3.46001 3.39C3.33001 3.51 3.21001 3.63 3.09001 3.76C2.96001 3.89 2.84001 4.02 2.73001 4.15C2.61001 4.28 2.50001 4.42 2.39001 4.56C2.28001 4.7 2.17001 4.84 2.07001 4.98C1.97001 5.13 1.87001 5.27 1.77001 5.42L1.50001 5.87C1.41001 6.02 1.32001 6.18 1.24001 6.34C1.16001 6.49 1.08001 6.65 1.01001 6.81C0.94001 6.97 0.87001 7.13 0.80001 7.3C0.73001 7.46 0.67001 7.63 0.61001 7.79C0.56001 7.96 0.50001 8.13 0.45001 8.3C0.40001 8.47 0.36001 8.64 0.32001 8.81C0.27001 8.98 0.24001 9.15 0.20001 9.33C0.17001 9.5 0.14001 9.68 0.11001 9.85C0.09001 10.03 0.07001 10.2 0.05001 10.38C0.03001 10.55 0.02001 10.73 0.01001 10.9C1e-05 11.08 1e-05 11.26 1e-05 11.43C1e-05 12.89 0.03001 14.9 0.08001 17.46Q0.23001 25.05 0.62001 33.42C0.98001 41.22 1.46001 48.99 2.08001 56.73C2.85001 66.42 3.80001 75.8 4.93001 84.85C7.84001 108.07 11.79 128.27 16.81 145.46Q26.59 178.985 41.53 196.07C46.74 202.01 52.66 207.38 59.3 212.16C65.27 216.46 71.79 220.26 78.86 223.57C85.11 226.49 91.76 229.02 98.8 231.14C104.91 232.97 111.26 234.49 117.86 235.69C123.42 236.7 129.08 237.47 134.85 238.01C139.46 238.44 144.04 238.7 148.59 238.81C151.86 238.89 154.96 238.88 157.9 238.79C159.43 238.74 160.65 238.68 161.57 238.61C161.75 238.59 161.93 238.58 162.11 238.55C162.29 238.53 162.47 238.5 162.65 238.47C162.82 238.44 163 238.4 163.18 238.36C163.36 238.32 163.53 238.28 163.71 238.23C163.88 238.18 164.05 238.13 164.23 238.07L164.74 237.89C164.91 237.82 165.08 237.75 165.24 237.68C165.41 237.6 165.57 237.52 165.73 237.44C165.89 237.36 166.05 237.27 166.21 237.18C166.37 237.09 166.52 237 166.68 236.9L167.13 236.6C167.28 236.49 167.42 236.39 167.56 236.27C167.71 236.16 167.85 236.05 167.98 235.93C168.12 235.81 168.26 235.69 168.39 235.56C168.52 235.43 168.65 235.31 168.77 235.17C168.89 235.04 169.02 234.91 169.13 234.77C169.25 234.63 169.37 234.49 169.48 234.35C169.59 234.2 169.7 234.06 169.8 233.91C169.9 233.76 170.01 233.61 170.1 233.46C170.2 233.3 170.29 233.15 170.38 232.99C170.47 232.83 170.55 232.67 170.63 232.51C170.72 232.35 170.79 232.18 170.87 232.02C170.94 231.85 171.01 231.68 171.07 231.51Q171.175 231.255 171.25 231C171.31 230.83 171.36 230.65 171.41 230.48C171.46 230.3 171.5 230.13 171.54 229.95C171.58 229.77 171.62 229.59 171.65 229.42C171.68 229.24 171.7 229.06 171.72 228.88C171.75 228.7 171.76 228.52 171.78 228.34C171.79 228.15 171.8 227.97 171.8 227.79L171.8 227.25C171.79 227.07 171.78 226.88 171.77 226.7C171.76 226.52 171.74 226.34 171.72 226.16C171.69 225.98 171.67 225.8 171.63 225.63C171.6 225.45 171.57 225.27 171.53 225.09C171.49 224.91 171.44 224.74 171.39 224.56C171.34 224.39 171.29 224.22 171.23 224.04C171.18 223.87 171.11 223.7 171.05 223.53C170.98 223.36 170.91 223.2 170.84 223.03C170.76 222.86 170.69 222.7 170.6 222.54C170.52 222.38 170.44 222.22 170.35 222.06C170.26 221.9 170.16 221.75 170.06 221.59C169.97 221.44 169.87 221.29 169.76 221.14C169.66 220.99 169.55 220.85 169.44 220.71C169.32 220.56 169.21 220.42 169.09 220.29Z M229.35 216.419C220.9 209.759 212.51 202.939 204.17 195.959C192.52 186.189 181.81 176.799 172.06 167.789C161.436 157.972 152.22 148.87 144.426 140.478L149.597 73.2423C149.627 72.8723 149.637 72.5123 149.627 72.1523C149.617 71.7923 149.597 71.4223 149.547 71.0623C149.507 70.7023 149.447 70.3523 149.367 69.9923C149.287 69.6423 149.197 69.2923 149.077 68.9423C148.967 68.6023 148.837 68.2623 148.697 67.9323C148.547 67.5923 148.387 67.2723 148.207 66.9523C148.027 66.6423 147.837 66.3323 147.627 66.0323C147.417 65.7323 147.197 65.4523 146.957 65.1723C146.727 64.9023 146.477 64.6323 146.217 64.3823C145.947 64.1323 145.677 63.8923 145.387 63.6723C145.107 63.4423 144.807 63.2323 144.507 63.0423C144.197 62.8423 143.887 62.6623 143.557 62.5023C143.237 62.3423 142.907 62.1923 142.567 62.0623C142.227 61.9223 141.887 61.8123 141.537 61.7123C141.187 61.6123 140.827 61.5323 140.477 61.4723C140.117 61.4123 139.757 61.3623 139.397 61.3323C139.217 61.3223 139.027 61.3123 138.847 61.3023L138.307 61.3023C138.127 61.3123 137.947 61.3123 137.767 61.3323C137.577 61.3423 137.397 61.3623 137.217 61.3823C137.037 61.4023 136.857 61.4323 136.687 61.4623C136.507 61.4923 136.327 61.5223 136.147 61.5623C135.967 61.6023 135.797 61.6423 135.617 61.6923C135.447 61.7423 135.267 61.7923 135.097 61.8523L134.587 62.0323C134.417 62.1023 134.247 62.1623 134.087 62.2423C133.917 62.3123 133.757 62.3923 133.587 62.4723C133.427 62.5523 133.267 62.6323 133.107 62.7223C132.947 62.8123 132.797 62.9123 132.637 63.0023L132.187 63.3023C132.037 63.4123 131.897 63.5123 131.747 63.6323C131.607 63.7423 131.467 63.8523 131.327 63.9723C131.187 64.0923 131.057 64.2123 130.927 64.3323L130.537 64.7223C130.417 64.8523 130.287 64.9823 130.167 65.1223C130.057 65.2623 129.937 65.4023 129.827 65.5423C129.717 65.6823 129.607 65.8323 129.497 65.9723C129.397 66.1223 129.297 66.2723 129.197 66.4323C129.097 66.5823 129.007 66.7323 128.917 66.8923C128.827 67.0523 128.737 67.2123 128.657 67.3723C128.577 67.5323 128.497 67.7023 128.427 67.8623C128.347 68.0323 128.277 68.2023 128.217 68.3623C128.147 68.5323 128.087 68.7023 128.027 68.8823C127.967 69.0523 127.917 69.2223 127.867 69.4023C127.817 69.5723 127.777 69.7523 127.737 69.9223C127.697 70.1023 127.657 70.2823 127.627 70.4623C127.597 70.6423 127.567 70.8223 127.547 71.0023C127.517 71.1823 127.507 71.3623 127.487 71.5423L124.045 116.302C121.802 113.369 119.597 110.384 117.43 107.349C111.43 98.959 105.85 90.359 100.69 81.579C97.0201 75.329 93.7501 69.299 90.8701 63.499C89.9801 61.709 89.1901 60.059 88.5001 58.549C88.1701 57.829 87.9301 57.299 87.7801 56.949C87.7101 56.789 87.6401 56.619 87.5601 56.459C87.4801 56.289 87.3901 56.129 87.3101 55.969C87.2201 55.819 87.1301 55.659 87.0301 55.499C86.9401 55.349 86.8401 55.199 86.7401 55.049C86.6301 54.899 86.5301 54.749 86.4201 54.609C86.3101 54.459 86.2001 54.319 86.0801 54.179C85.9601 54.039 85.8401 53.909 85.7201 53.769C85.6001 53.639 85.4701 53.509 85.3401 53.379C85.2101 53.259 85.0801 53.129 84.9401 53.009C84.8101 52.889 84.6701 52.769 84.5301 52.659C84.3901 52.549 84.2401 52.439 84.0901 52.329C83.9501 52.219 83.8001 52.119 83.6501 52.019C83.4901 51.919 83.3401 51.829 83.1801 51.739C83.0301 51.639 82.8701 51.559 82.7101 51.469C82.5501 51.389 82.3801 51.309 82.2201 51.229C82.0501 51.159 81.8901 51.089 81.7201 51.019C81.5501 50.949 81.3801 50.889 81.2101 50.829C81.0401 50.769 80.8601 50.709 80.6901 50.659C80.5201 50.609 80.3401 50.569 80.1601 50.519C79.9901 50.479 79.8101 50.439 79.6301 50.409C79.4501 50.379 79.2701 50.349 79.1001 50.319C78.9201 50.299 78.7401 50.279 78.5501 50.259L78.0101 50.229C77.8301 50.219 77.6501 50.219 77.4701 50.219C77.2901 50.219 77.1001 50.229 76.9201 50.239C76.7401 50.249 76.5601 50.269 76.3801 50.289C76.2001 50.309 76.0201 50.329 75.8401 50.359C75.6601 50.389 75.4801 50.419 75.3101 50.459C75.1301 50.489 74.9501 50.539 74.7801 50.579C74.6001 50.629 74.4301 50.679 74.2501 50.729L73.7401 50.909C73.5701 50.969 73.4001 51.039 73.2301 51.109C72.9001 51.249 72.5701 51.409 72.2601 51.589C71.9401 51.759 71.6301 51.949 71.3301 52.159C71.0301 52.359 70.7401 52.579 70.4601 52.809C70.1801 53.049 69.9201 53.289 69.6601 53.549C69.4101 53.809 69.1701 54.079 68.9401 54.369C68.7101 54.649 68.5001 54.939 68.3001 55.249C68.1001 55.549 67.9201 55.859 67.7501 56.189C67.5901 56.509 67.4301 56.839 67.3001 57.169C67.1601 57.509 67.0501 57.849 66.9401 58.199C66.8401 58.549 66.7601 58.899 66.6901 59.259C66.6201 59.619 66.5701 59.979 66.5401 60.339C66.5101 60.699 66.5001 61.059 66.5001 61.429C66.5001 61.789 66.5301 62.149 66.5701 62.509C66.6101 62.869 66.6601 63.229 66.7401 63.589C66.8101 63.939 66.9001 64.289 67.0101 64.639C67.1201 64.979 67.2501 65.329 67.3901 65.659C67.6201 66.189 67.9301 66.899 68.3501 67.799C69.1301 69.509 70.0201 71.369 71.0101 73.349C74.1101 79.619 77.6301 86.099 81.5701 92.809C87.0601 102.159 93.0001 111.309 99.3901 120.239C101.927 123.793 104.513 127.282 107.148 130.707L78.69 127.862C78.51 127.842 78.33 127.822 78.15 127.812C77.97 127.812 77.78 127.802 77.6 127.802C77.42 127.802 77.24 127.802 77.06 127.812C76.88 127.822 76.7 127.832 76.52 127.852C76.34 127.872 76.16 127.892 75.98 127.922C75.8 127.942 75.62 127.972 75.44 128.012C75.26 128.052 75.08 128.082 74.91 128.132C74.73 128.172 74.56 128.222 74.38 128.272C74.21 128.332 74.04 128.382 73.87 128.442C73.7 128.502 73.53 128.572 73.36 128.642C73.19 128.712 73.03 128.782 72.86 128.862C72.7 128.932 72.53 129.022 72.37 129.102C72.21 129.192 72.06 129.282 71.9 129.372C71.75 129.462 71.59 129.562 71.44 129.662C71.29 129.762 71.14 129.862 71 129.972C70.85 130.082 70.71 130.192 70.57 130.312C70.43 130.422 70.29 130.542 70.15 130.662C70.02 130.782 69.89 130.912 69.76 131.042C69.63 131.162 69.5 131.302 69.38 131.432C69.26 131.562 69.14 131.702 69.03 131.842C68.91 131.982 68.8 132.122 68.69 132.272C68.58 132.412 68.48 132.562 68.38 132.712C68.28 132.862 68.18 133.022 68.09 133.172C67.99 133.332 67.9 133.492 67.82 133.652C67.73 133.812 67.65 133.972 67.57 134.132C67.49 134.302 67.42 134.462 67.35 134.632C67.28 134.802 67.21 134.972 67.15 135.142C67.09 135.312 67.04 135.482 66.98 135.652C66.93 135.832 66.88 136.002 66.84 136.182C66.79 136.352 66.75 136.532 66.72 136.712C66.68 136.892 66.65 137.062 66.62 137.242C66.6 137.422 66.57 137.602 66.56 137.782C66.54 137.962 66.52 138.152 66.51 138.332C66.51 138.512 66.5 138.692 66.5 138.872C66.5 139.052 66.5 139.232 66.51 139.412C66.52 139.602 66.53 139.782 66.55 139.962C66.57 140.142 66.59 140.322 66.62 140.502C66.64 140.682 66.67 140.862 66.71 141.032C66.75 141.212 66.78 141.392 66.83 141.562C66.87 141.742 66.92 141.922 66.97 142.092C67.03 142.262 67.08 142.442 67.14 142.612C67.2 142.782 67.27 142.952 67.34 143.112C67.41 143.282 67.48 143.452 67.56 143.612C67.63 143.782 67.72 143.942 67.8 144.102C67.89 144.262 67.98 144.422 68.07 144.572C68.16 144.732 68.26 144.882 68.36 145.032C68.46 145.182 68.56 145.332 68.67 145.482C68.78 145.622 68.89 145.772 69.01 145.912C69.12 146.052 69.24 146.192 69.36 146.322C69.48 146.452 69.61 146.592 69.74 146.712C69.86 146.842 70 146.972 70.13 147.092C70.26 147.212 70.4 147.332 70.54 147.452C70.68 147.562 70.82 147.672 70.97 147.782C71.11 147.892 71.26 147.992 71.41 148.102C71.56 148.202 71.72 148.292 71.87 148.392L72.35 148.662L72.83 148.902C73 148.982 73.16 149.052 73.33 149.122C73.5 149.192 73.67 149.262 73.84 149.322C74.01 149.382 74.18 149.442 74.35 149.492C74.53 149.542 74.7 149.592 74.88 149.642C75.05 149.682 75.23 149.722 75.41 149.762C75.59 149.792 75.76 149.822 75.94 149.852C76.12 149.882 76.3 149.902 76.48 149.922L127.688 155.041C135.976 164.002 145.755 173.682 157.01 184.079C167.03 193.329 178 202.959 189.93 212.949C198.44 220.079 207 227.039 215.62 233.829C218.32 235.959 220.86 237.939 223.25 239.789C224.46 240.709 225.4 241.429 226.07 241.939C226.22 242.049 226.36 242.159 226.51 242.259C226.66 242.359 226.82 242.459 226.97 242.549C227.13 242.649 227.28 242.739 227.44 242.829C227.6 242.909 227.76 242.999 227.93 243.079C228.09 243.159 228.26 243.229 228.42 243.299C228.59 243.369 228.76 243.439 228.93 243.499L229.44 243.679C229.62 243.729 229.79 243.779 229.97 243.829C230.14 243.869 230.32 243.909 230.5 243.949C230.67 243.989 230.85 244.019 231.03 244.049C231.21 244.079 231.39 244.099 231.57 244.119C231.75 244.139 231.93 244.149 232.11 244.159C232.29 244.179 232.48 244.179 232.66 244.179C232.84 244.179 233.02 244.179 233.2 244.169C233.38 244.169 233.56 244.159 233.74 244.139C233.93 244.119 234.11 244.099 234.28 244.079L234.82 243.989C235 243.959 235.18 243.919 235.35 243.869C235.53 243.829 235.71 243.789 235.88 243.729C236.05 243.679 236.23 243.629 236.4 243.569C236.57 243.509 236.74 243.439 236.91 243.379C237.08 243.309 237.24 243.239 237.41 243.159L237.89 242.919C238.06 242.839 238.21 242.749 238.37 242.659C238.53 242.559 238.68 242.469 238.83 242.369C238.98 242.269 239.13 242.169 239.28 242.059C239.43 241.949 239.57 241.839 239.71 241.729C239.85 241.619 239.99 241.499 240.13 241.379C240.26 241.259 240.4 241.129 240.53 241.009C240.65 240.879 240.78 240.749 240.9 240.619C241.03 240.479 241.15 240.349 241.26 240.209C241.38 240.069 241.49 239.929 241.6 239.779C241.71 239.639 241.82 239.489 241.92 239.339C242.02 239.189 242.12 239.039 242.21 238.879C242.31 238.729 242.4 238.569 242.49 238.409C242.57 238.249 242.66 238.089 242.74 237.929C242.81 237.759 242.89 237.599 242.96 237.429C243.03 237.259 243.1 237.099 243.16 236.919L243.34 236.409C243.39 236.239 243.44 236.059 243.49 235.889C243.53 235.709 243.57 235.529 243.61 235.359C243.65 235.179 243.68 234.999 243.71 234.819C243.74 234.639 243.76 234.459 243.78 234.279C243.8 234.099 243.81 233.919 243.82 233.739C243.84 233.559 243.84 233.379 243.84 233.199C243.84 233.009 243.84 232.829 243.83 232.649C243.83 232.469 243.82 232.289 243.8 232.109L243.74 231.569L243.65 231.029C243.62 230.849 243.58 230.679 243.53 230.499C243.49 230.319 243.45 230.149 243.39 229.969C243.34 229.799 243.29 229.629 243.23 229.459C243.17 229.279 243.1 229.109 243.04 228.949C242.97 228.779 242.9 228.609 242.82 228.449C242.74 228.279 242.66 228.119 242.58 227.959C242.5 227.799 242.41 227.639 242.32 227.479C242.22 227.329 242.13 227.169 242.03 227.019C241.93 226.869 241.83 226.719 241.72 226.569C241.61 226.429 241.5 226.279 241.39 226.139C241.28 225.999 241.16 225.859 241.04 225.729C240.92 225.589 240.79 225.459 240.67 225.329C240.54 225.199 240.41 225.069 240.28 224.949C240.14 224.829 240.01 224.709 239.87 224.589C239.73 224.469 239.59 224.359 239.44 224.249C238.82 223.779 237.94 223.109 236.79 222.219C234.46 220.429 231.98 218.499 229.35 216.419Z " /></g></g></svg>