<svg xmlns="http://www.w3.org/2000/svg" xmlns:xlink="http://www.w3.org/1999/xlink" width="380" height="380" viewBox="0 0 380 380" fill="none"><defs><rect id="path_0" x="0" y="0" width="380" height="380" /></defs><g opacity="1" transform="translate(0 0)  rotate(0 190 190)"><mask id="bg-mask-0" fill="white"><use xlink:href="#path_0"></use></mask><g mask="url(#bg-mask-0)" ><path id="路径 1" fill-rule="evenodd" style="fill:#3BD595" transform="translate(34.84111435412677 35.65377385424857)  rotate(0 154.7676017827896 124.89874548722838)" opacity="0.2" d="M62.09,61.87C60.89,64.57 58.79,66.78 56.15,68.1C23.35,82.8 1.65,114.76 0.09,150.67C-1.47,186.59 17.37,220.3 48.78,237.79C80.18,255.28 118.77,253.55 148.48,233.31C152.53,230.65 157.78,230.65 161.84,233.31C191,252.88 228.59,254.73 259.54,238.12C290.48,221.52 309.72,189.17 309.53,154.05C309.42,117.05 287.8,83.5 254.17,68.1C251.53,66.78 249.43,64.57 248.23,61.87C232.49,24.39 195.81,0 155.16,0C114.51,0 77.82,24.39 62.09,61.87Z " /><path id="分组 1" fill-rule="evenodd" style="fill:#3BD595" transform="translate(23.749647552198347 23.690129531413827)  rotate(0 166.25035244780165 166.27993523429308)" opacity="1" d="M178.13 262.05C192.89 269.38 209.15 273.19 225.63 273.18L228.45 273.18C285.89 271.7 332.65 223.61 332.5 166.01C332.27 124.43 308.04 86.72 270.31 69.23C252.74 27.29 211.72 0 166.25 0C120.78 0 79.76 27.29 62.2 69.23C24.46 86.72 0.23 124.43 0 166.01C-0.15 223.61 46.61 271.7 104.06 273.18C121.49 273.66 138.77 269.84 154.38 262.05L154.38 320.68C154.38 327.24 159.7 332.56 166.25 332.56C172.8 332.56 178.13 327.24 178.13 320.68L178.13 262.05Z M166.25 23.9271C130.41 23.9271 98.0699 45.4071 84.1599 78.4371C81.7899 83.8671 77.5199 88.2471 72.1399 90.7571C42.8099 104.367 23.9599 133.677 23.7499 166.017C23.5999 210.837 59.9699 248.247 104.65 249.437C121.83 249.877 138.73 245.007 153.04 235.477L154.38 234.587L154.38 209.207L89.6599 176.997C85.8399 175.087 83.3299 171.287 83.0699 167.027C82.8199 162.767 84.8499 158.687 88.4199 156.337C91.9799 153.987 96.5299 153.717 100.34 155.627L154.38 182.787L154.38 106.937C154.38 100.377 159.7 95.0571 166.25 95.0571C172.8 95.0571 178.13 100.377 178.13 106.937L178.13 147.157L232.16 119.997C238.06 117.047 245.24 119.437 248.19 125.337C251.14 131.247 248.75 138.417 242.84 141.377L178.13 173.587L178.13 234.587L179.46 235.477C193.77 245.007 210.67 249.877 227.85 249.437C272.53 248.247 308.9 210.837 308.75 166.017C308.54 133.677 289.69 104.367 260.36 90.7571C254.99 88.2471 250.71 83.8671 248.34 78.4371C234.43 45.4071 202.09 23.9271 166.25 23.9271Z " /></g></g></svg>